<svg xmlns="http://www.w3.org/2000/svg" viewBox="0 0 150 82.67"><title>Asset 1</title><g id="Layer_2" data-name="Layer 2"><g id="Layer_1-2" data-name="Layer 1"><path d="M0,20.46H2.08V6.22H0v-5H14.77a15.08,15.08,0,0,1,7.1,1.54,10.14,10.14,0,0,1,4.35,4.27,13.08,13.08,0,0,1,1.46,6.23q0,5.64-3.3,8.9t-9.61,3.26H0Zm13.2,0a5.32,5.32,0,0,0,4.46-1.79,8.75,8.75,0,0,0,1.39-5.39A8.48,8.48,0,0,0,17.66,8,5.34,5.34,0,0,0,13.2,6.22H10.37V20.46Z"/><path d="M29.83,20.46h2.24L37.64,6.22H35.39v-5h18.3v5H51.45l5.6,14.24h2.24v5H46.14v-5h2.49l-1-3.32H40.58L39.5,20.46h2.08v5H29.83Zm16.39-7.89-1.9-6.35h-.21L42,12.57Z"/><path d="M62.61,6.22h-1.9v-5H74v5H71.25l4.14,10.17,4-10.17H76.68v-5H88.09v5H86.18L77.72,25.44h-5.6Z"/><path d="M90.75,20.46h2.07V6.22H90.75v-5h23.52V10h-5V6.22h-8.14v4.61h2.45V8.55h4.15v9.13h-4.11V15.39h-2.49v5h8.3V16.14h5v9.3H90.75Z"/><path d="M118.05,9.09a2.14,2.14,0,0,0,1.85-.83,4.63,4.63,0,0,0,.6-2.66h-2.57V0H124V4.44c0,2.38-.47,4.12-1.39,5.23s-2.46,1.66-4.59,1.66Z"/><path d="M148.11,12.59A7.42,7.42,0,0,1,150,18a7.32,7.32,0,0,1-2.32,5.79,9.13,9.13,0,0,1-6.27,2.05,13.51,13.51,0,0,1-4.36-.77A8.44,8.44,0,0,1,133.57,23v2.45h-5.4V17.18H133a8.38,8.38,0,0,0,2.88,3.05,7.35,7.35,0,0,0,4,1.1,3,3,0,0,0,1.75-.48,1.61,1.61,0,0,0,.66-1.39,1.78,1.78,0,0,0-.73-1.53A6.6,6.6,0,0,0,139,17l-3.32-.7a11.49,11.49,0,0,1-5.87-2.85A7.2,7.2,0,0,1,128,8.26a7.24,7.24,0,0,1,1-3.84,7,7,0,0,1,2.89-2.64,9.4,9.4,0,0,1,4.31-.95,10.77,10.77,0,0,1,7.64,2.7V1.24h5V8.38h-4.57a6.82,6.82,0,0,0-2.32-2.16,6.57,6.57,0,0,0-3.36-.87c-1.47,0-2.2.56-2.2,1.66a1.66,1.66,0,0,0,.93,1.5,11.4,11.4,0,0,0,3.22,1l1.66.33A11.44,11.44,0,0,1,148.11,12.59Z"/><path d="M0,80.49H2.66V64.92H0v-1.8H9.47a8.72,8.72,0,0,1,5.34,1.4,4.76,4.76,0,0,1,1.84,4,5.16,5.16,0,0,1-1.89,4.31A8.75,8.75,0,0,1,9.3,74.36H6.74V72.55H9.19a5.1,5.1,0,0,0,3.41-1,3.66,3.66,0,0,0,1.19-2.93,3.5,3.5,0,0,0-1-2.72,4.22,4.22,0,0,0-3-1H5.45V80.49H8.1v1.8H0Z"/><path d="M19.17,80.49h2.66V64.92H19.17v-1.8H29.25A7.86,7.86,0,0,1,34,64.4a4.37,4.37,0,0,1,1.72,3.73q0,4.35-4.94,5.1l4.39,7.26H38v1.8H33.3l-5.14-8.78H25.81V71.63h3a4.31,4.31,0,0,0,3.23-1,3.43,3.43,0,0,0,1-2.47,3.11,3.11,0,0,0-.94-2.33,3.86,3.86,0,0,0-2.78-.91H24.62V80.49h2.66v1.8H19.17Z"/><path d="M45.54,81.32a9.69,9.69,0,0,1-3.66-3.61,9.83,9.83,0,0,1-1.29-4.95,10,10,0,0,1,1.29-5,9.65,9.65,0,0,1,3.66-3.65,11.69,11.69,0,0,1,10.87,0,9.65,9.65,0,0,1,3.66,3.65,10,10,0,0,1,1.29,5,9.83,9.83,0,0,1-1.29,4.95,9.69,9.69,0,0,1-3.66,3.61,11.62,11.62,0,0,1-10.87,0Zm9.39-1.75a7.08,7.08,0,0,0,2.57-2.85,8.67,8.67,0,0,0,.9-4,8.86,8.86,0,0,0-.9-4A7.5,7.5,0,0,0,47,65.86a7,7,0,0,0-2.56,2.9,9.06,9.06,0,0,0-.88,4,8.75,8.75,0,0,0,.88,4A6.81,6.81,0,0,0,47,79.58a8,8,0,0,0,7.9,0Z"/><path d="M64.43,80.49h2.65V64.92H64.43v-1.8H74.85a10.28,10.28,0,0,1,5.39,1.33,8.54,8.54,0,0,1,3.34,3.49,9.89,9.89,0,0,1,1.11,4.58,11.16,11.16,0,0,1-1.11,5.07,8,8,0,0,1-3.3,3.46,10.84,10.84,0,0,1-5.4,1.24H64.43Zm10.18,0A6.62,6.62,0,0,0,80,78.31a8.76,8.76,0,0,0,1.79-5.72A8.92,8.92,0,0,0,81,68.81,6.49,6.49,0,0,0,78.66,66a6.9,6.9,0,0,0-4-1.08H69.87V80.49Z"/><path d="M91.79,80.66a7.21,7.21,0,0,1-2-5.32V64.92H87.27v-1.8h7.87v1.8H92.59v10.8A4.6,4.6,0,0,0,94,79.29a5.52,5.52,0,0,0,3.9,1.3,6.11,6.11,0,0,0,4.17-1.3,4.52,4.52,0,0,0,1.48-3.61V64.92H101v-1.8h7.46v1.8H105.9V75.58a6.42,6.42,0,0,1-2.19,5.25,9,9,0,0,1-5.88,1.8C95.11,82.63,93.09,82,91.79,80.66Z"/><path d="M129.87,77.11q-2.15,5.49-9,5.56a10.58,10.58,0,0,1-5.25-1.28,9,9,0,0,1-3.54-3.53,11.19,11.19,0,0,1,0-10.28,8.88,8.88,0,0,1,3.54-3.52,10.66,10.66,0,0,1,5.3-1.28,9,9,0,0,1,3.85.8,6.34,6.34,0,0,1,2.65,2.2V63.12h2v5.79l-1.84.07a7.44,7.44,0,0,0-10.47-3.12,7,7,0,0,0-2.61,2.81,8.55,8.55,0,0,0-.92,4,8.78,8.78,0,0,0,1,4.19,6.74,6.74,0,0,0,2.65,2.79,7.48,7.48,0,0,0,3.82,1,7.84,7.84,0,0,0,4.13-1.09,6.12,6.12,0,0,0,2.64-3.44Z"/><path d="M133.14,80.49h2.66V64.92h-2.66v-1.8h16.69v5.69h-2.15V64.92h-9.09v6.51h6V69.18H146v6.4h-1.4V73.3h-6v7.19h9.26v-4H150v5.79H133.14Z"/><path d="M0,54.16H3.12V34.83H0V31.66H10L17.48,48.2l7.14-16.54h9.94v3.17H31.45V54.16h3.11v3.17H23.63V54.16h3V36L17.85,56.11H16L7,36v18.2h3v3.17H0Z"/><path d="M38.4,54.16h3.21V34.83H38.4V31.66h23v8.05H57.92V34.83H46.67v7.72h6.55V39.66h2.53v8.9H53.27V45.67h-6.6v8.49H58.15V49h3.48v8.32H38.4Z"/><path d="M65,54.16h3l7-19.33H72.33V31.66H86.66v3.17h-2.8l7.22,19.33H94v3.17H82.64V54.16h3.2L83.63,47.7H74.82l-2.17,6.46h3.07v3.17H65Zm17.71-9.48-3.3-9.81h-.27l-3.39,9.81Z"/><path d="M102.7,54.16H106V34.78H99.85v6H96.33V31.66h24.21v9.13h-3.48v-6h-6V54.16h3.3v3.17H102.7Z"/><path d="M128.47,56.72a7.94,7.94,0,0,1-3.23-2.87,7.56,7.56,0,0,1-1.13-4.07q0-5,6.6-7.54a15,15,0,0,1-1.92-3,6.59,6.59,0,0,1-.66-2.87,4.94,4.94,0,0,1,1.94-4,8,8,0,0,1,5.2-1.58,7.28,7.28,0,0,1,4.86,1.54A4.76,4.76,0,0,1,142,36.18q0,4.29-5.61,6.82l5.43,6.28a10.25,10.25,0,0,0,1.4-2.71,21.88,21.88,0,0,0,.9-3.25H150v3l-3.07.05A16.4,16.4,0,0,1,144,52L146,54.25h4v3.08h-6.69l-2-2.53a11.34,11.34,0,0,1-7.95,3A10.85,10.85,0,0,1,128.47,56.72Zm10.64-4.5-6.41-7.63c-2.72,1-4.07,2.69-4.07,5A4.58,4.58,0,0,0,130.12,53,5.36,5.36,0,0,0,134,54.44,6.62,6.62,0,0,0,139.11,52.22Zm-1.78-13.55a3.54,3.54,0,0,0,.92-2.4,2.53,2.53,0,0,0-.83-2,3.25,3.25,0,0,0-2.19-.72,3.35,3.35,0,0,0-2.24.68,2.35,2.35,0,0,0-.79,1.9,4.19,4.19,0,0,0,.56,2,17.25,17.25,0,0,0,1.7,2.41A8.39,8.39,0,0,0,137.33,38.67Z"/></g></g></svg>