<?xml version="1.0" encoding="utf-8"?>
<!-- Generator: Adobe Illustrator 22.1.0, SVG Export Plug-In . SVG Version: 6.00 Build 0)  -->
<svg version="1.1" xmlns="http://www.w3.org/2000/svg" xmlns:xlink="http://www.w3.org/1999/xlink" x="0px" y="0px"
	 viewBox="0 0 150 91.6" style="enable-background:new 0 0 150 91.6;" xml:space="preserve">
<style type="text/css">
	.st0{display:none;}
</style>
<g id="Layer_1">
	<g>
		<g>
			<path d="M0,20.5h2.1V6.2H0v-5h14.8c2.8,0,5.2,0.5,7.1,1.5c1.9,1,3.4,2.4,4.4,4.3c1,1.8,1.5,3.9,1.5,6.2c0,3.8-1.1,6.7-3.3,8.9
				c-2.2,2.2-5.4,3.3-9.6,3.3H0V20.5z M13.2,20.5c2,0,3.5-0.6,4.5-1.8c0.9-1.2,1.4-3,1.4-5.4c0-2.4-0.5-4.1-1.4-5.3
				c-0.9-1.2-2.4-1.8-4.5-1.8h-2.8v14.2H13.2z"/>
			<path d="M29.8,20.5h2.2l5.6-14.2h-2.2v-5h18.3v5h-2.2l5.6,14.2h2.2v5H46.1v-5h2.5l-1-3.3h-7.1l-1.1,3.3h2.1v5H29.8V20.5z
				 M46.2,12.6l-1.9-6.3h-0.2L42,12.6H46.2z"/>
			<path d="M62.6,6.2h-1.9v-5H74v5h-2.7l4.1,10.2l3.9-10.2h-2.7v-5h11.4v5h-1.9l-8.5,19.2h-5.6L62.6,6.2z"/>
			<path d="M90.7,20.5h2.1V6.2h-2.1v-5h23.5V10h-5V6.2h-8.1v4.6h2.4V8.5h4.1v9.1h-4.1v-2.3h-2.5v5h8.3v-4.3h5v9.3H90.7V20.5z"/>
			<path d="M118,9.1c0.8,0,1.4-0.3,1.8-0.8c0.4-0.6,0.6-1.4,0.6-2.7h-2.6V0h6.1v4.4c0,2.4-0.5,4.1-1.4,5.2c-0.9,1.1-2.5,1.7-4.6,1.7
				V9.1z"/>
			<path d="M148.1,12.6c1.3,1.3,1.9,3.1,1.9,5.4c0,2.5-0.8,4.4-2.3,5.8c-1.5,1.4-3.6,2.1-6.3,2.1c-1.4,0-2.9-0.3-4.4-0.8
				c-1.5-0.5-2.7-1.2-3.5-2.1v2.4h-5.4v-8.3h4.8c0.7,1.3,1.7,2.3,2.9,3.1c1.2,0.7,2.5,1.1,4,1.1c0.7,0,1.3-0.2,1.7-0.5
				c0.4-0.3,0.7-0.8,0.7-1.4c0-0.7-0.2-1.2-0.7-1.5c-0.5-0.4-1.3-0.7-2.5-0.9l-3.3-0.7c-2.7-0.6-4.6-1.6-5.9-2.8
				c-1.2-1.3-1.8-3-1.8-5.2c0-1.4,0.3-2.7,1-3.8c0.7-1.1,1.6-2,2.9-2.6c1.2-0.6,2.7-1,4.3-1c3.2,0,5.7,0.9,7.6,2.7V1.2h5v7.1h-4.6
				c-0.6-0.9-1.3-1.6-2.3-2.2c-1-0.6-2.1-0.9-3.4-0.9c-1.5,0-2.2,0.6-2.2,1.7c0,0.6,0.3,1.1,0.9,1.5c0.6,0.4,1.7,0.7,3.2,1l1.7,0.3
				C144.9,10.4,146.9,11.3,148.1,12.6z"/>
		</g>
		<g>
			<path d="M0,89.7h3.4V66.8H0v-1.5h6.2L16,85.4l9.2-20.1h6.3v1.5H28v22.9h3.4v1.5h-9v-1.5H26V67.8l-9.9,21.4h-0.6L5.2,67.8v21.8
				h3.4v1.5H0V89.7z"/>
			<path d="M34.4,89.7h3.8V66.8h-3.8v-1.5h21.5v7.5h-1.7v-6H40.4v10.4h8.9v-3.5h1.3v8.8h-1.3v-3.8h-9v11h14.3v-6.1h1.7v7.6h-22V89.7
				z"/>
			<path d="M59.9,89.7h3.4l8.4-22.9h-3.1v-1.5h10.2v1.5h-3.2l8.5,22.9h3.3v1.5h-8.9v-1.5h3.3l-3.3-9h-9.9l-3.3,9h3.3v1.5h-8.9V89.7z
				 M78.1,79.2l-4.4-12.3h-0.2l-4.4,12.3H78.1z"/>
			<path d="M96.1,89.7h3.8V66.8h-8.9V74h-1.7v-8.7h23.3V74H111v-7.2h-8.9v22.9h3.8v1.5h-9.7V89.7z"/>
			<path d="M129.8,89.6c-1.5-1.4-2.3-3.2-2.3-5.6c0-3.8,2.1-6.3,6.2-7.7c-1.1-1.3-2-2.6-2.6-3.7c-0.6-1.1-0.9-2.2-0.9-3.2
				c0-1.6,0.6-2.8,1.7-3.7c1.1-0.9,2.7-1.3,4.6-1.3c1.9,0,3.3,0.4,4.4,1.3c1.1,0.9,1.6,2.1,1.6,3.6c0,1.5-0.6,2.9-1.7,4.2
				c-1.1,1.3-2.7,2.4-4.7,3.2l7.4,9.1c0.5-0.7,0.9-1.7,1.3-2.9c0.4-1.2,0.6-2.3,0.7-3.2h4.4v1.5h-3c-0.1,0.8-0.4,1.8-0.9,3.1
				c-0.5,1.2-0.9,2.2-1.5,2.9l1.8,2.3h3.5v1.5h-4.5l-1.9-2.5c-0.9,1-2,1.7-3.3,2.2c-1.3,0.5-2.7,0.8-4.2,0.8
				C133.4,91.6,131.3,90.9,129.8,89.6z M139.7,89.3c1.1-0.4,2-1.1,2.8-1.9l-7.9-9.8c-1.7,0.5-3,1.3-3.8,2.4c-0.9,1.1-1.3,2.4-1.3,4
				c0,1.9,0.6,3.3,1.8,4.4c1.2,1.1,2.8,1.6,4.9,1.6C137.5,89.9,138.7,89.7,139.7,89.3z M139.4,73c1-1.1,1.4-2.2,1.4-3.5
				c0-1.1-0.4-2-1.1-2.6c-0.8-0.6-1.8-0.9-3.2-0.9c-1.4,0-2.5,0.3-3.3,0.9c-0.8,0.6-1.2,1.5-1.2,2.6c0,0.9,0.3,1.8,0.8,2.7
				c0.6,0.9,1.4,2.1,2.5,3.5C137.1,74.9,138.4,74.1,139.4,73z"/>
		</g>
		<g>
			<path d="M0,53.5h2.8V36.8H0v-1.3h10c2.1,0,3.7,0.5,4.9,1.4c1.1,0.9,1.7,2.3,1.7,4c0,1.9-0.6,3.4-1.7,4.4c-1.2,1-2.8,1.5-4.9,1.5
				H6.3v-1.3h3.6c1.5,0,2.6-0.4,3.4-1.2c0.8-0.8,1.2-1.9,1.2-3.4c0-1.3-0.4-2.3-1.1-3c-0.8-0.7-1.8-1.1-3.2-1.1H4.8v16.8h2.8v1.3H0
				V53.5z"/>
			<path d="M19.2,53.5H22V36.8h-2.8v-1.3h10.4c2,0,3.5,0.5,4.5,1.4c1.1,0.9,1.6,2.2,1.6,3.7c0,1.4-0.4,2.6-1.3,3.5
				c-0.9,0.9-2.3,1.5-4.2,1.6l4.8,7.8H38v1.3h-4.3l-5.4-9h-3v-1.4H29c1.8,0,3-0.4,3.7-1.1c0.7-0.8,1.1-1.7,1.1-2.8s-0.3-2-1-2.7
				c-0.7-0.7-1.7-1.1-3.1-1.1h-5.6v16.8h2.8v1.3h-7.6V53.5z"/>
			<path d="M45.2,53.9c-1.6-0.9-2.8-2.2-3.6-3.7c-0.8-1.5-1.2-3.2-1.2-4.9c0-1.8,0.4-3.4,1.2-5c0.8-1.5,2-2.8,3.6-3.7
				c1.6-0.9,3.4-1.4,5.5-1.4c2.1,0,4,0.5,5.6,1.4c1.6,0.9,2.8,2.2,3.6,3.7c0.8,1.5,1.2,3.2,1.2,5c0,1.8-0.4,3.4-1.2,5
				c-0.8,1.5-2,2.8-3.6,3.7c-1.6,0.9-3.4,1.4-5.6,1.4C48.6,55.3,46.8,54.8,45.2,53.9z M55.2,52.6c1.3-0.8,2.2-1.8,2.8-3.1
				c0.6-1.3,1-2.7,1-4.2c0-1.5-0.3-2.9-1-4.2c-0.6-1.3-1.6-2.4-2.8-3.2c-1.2-0.8-2.7-1.2-4.5-1.2c-1.7,0-3.2,0.4-4.4,1.2
				c-1.2,0.8-2.2,1.9-2.8,3.2c-0.6,1.3-1,2.8-1,4.3c0,1.5,0.3,3,0.9,4.3c0.6,1.3,1.6,2.3,2.8,3.1c1.2,0.8,2.7,1.2,4.5,1.2
				C52.5,53.7,54,53.4,55.2,52.6z"/>
			<path d="M64,53.5h2.8V36.8H64v-1.3h11c2,0,3.7,0.5,5.1,1.4c1.4,0.9,2.4,2.1,3.1,3.6c0.7,1.5,1,3,1,4.6c0,1.8-0.4,3.4-1.1,4.9
				c-0.7,1.5-1.7,2.7-3.1,3.6c-1.4,0.9-3.1,1.3-5,1.3H64V53.5z M74.9,53.5c1.6,0,3-0.4,4.1-1.2c1.1-0.8,1.9-1.8,2.5-3.1
				c0.5-1.3,0.8-2.7,0.8-4.2c0-1.4-0.3-2.8-0.8-4.1c-0.5-1.3-1.4-2.3-2.5-3.1c-1.1-0.8-2.4-1.2-4-1.2h-6.1v16.8H74.9z"/>
			<path d="M91.4,53.3c-1.4-1.3-2.1-3-2.1-5.1V36.8h-2.6v-1.3h7.2v1.3h-2.6v11.6c0,1.6,0.6,2.9,1.7,3.9c1.1,1,2.7,1.5,4.6,1.5
				c2.1,0,3.7-0.5,4.9-1.5c1.2-1,1.8-2.3,1.8-3.9V36.8h-2.6v-1.3h7v1.3h-2.6v11.6c0,2.2-0.8,3.9-2.4,5.1c-1.6,1.2-3.6,1.8-6.2,1.8
				C94.9,55.2,92.8,54.6,91.4,53.3z"/>
			<path d="M129.9,50c-1.6,3.4-4.6,5.2-9,5.2c-1.8,0-3.5-0.4-5.1-1.2c-1.5-0.8-2.8-2-3.7-3.5c-0.9-1.5-1.4-3.3-1.4-5.4
				c0-1.9,0.4-3.6,1.3-5.1c0.8-1.5,2-2.7,3.6-3.6c1.5-0.9,3.3-1.3,5.3-1.3c3.3,0,5.7,1.2,7.2,3.6v-3.3h1.6v5.7l-1.3,0.1
				c-0.8-1.6-1.8-2.8-2.9-3.5c-1.2-0.7-2.6-1.1-4.4-1.1c-1.7,0-3.1,0.4-4.4,1.1c-1.2,0.8-2.2,1.8-2.9,3.1c-0.7,1.3-1,2.7-1,4.3
				c0,1.8,0.4,3.3,1.1,4.6c0.7,1.3,1.7,2.3,3,3c1.2,0.7,2.6,1,4.1,1c1.6,0,3.1-0.4,4.4-1.1c1.3-0.7,2.3-1.8,3-3.4L129.9,50z"/>
			<path d="M133.2,53.5h2.8V36.8h-2.8v-1.3h16.5v5.7h-1.6v-4.3h-10v7.4h6.5v-2.5h1.1v6.6h-1.1v-2.6h-6.5v8h10.3v-4.4h1.6v5.8h-16.8
				V53.5z"/>
		</g>
	</g>
</g>
</svg>
